<?xml version="1.0" standalone="no"?>
<!DOCTYPE svg PUBLIC "-//W3C//DTD SVG 20010904//EN"
 "http://www.w3.org/TR/2001/REC-SVG-20010904/DTD/svg10.dtd">
<svg version="1.0" xmlns="http://www.w3.org/2000/svg"
 width="512.000000pt" height="512.000000pt" viewBox="0 0 512.000000 512.000000"
 preserveAspectRatio="xMidYMid meet">

<g transform="translate(0.000000,512.000000) scale(0.100000,-0.100000)"
fill="#000000" stroke="none">
<path d="M2660 4019 c-677 -54 -1098 -300 -1335 -780 l-37 -75 -207 -92 c-269
-120 -519 -224 -642 -267 -55 -19 -108 -39 -119 -45 -50 -27 -111 -149 -150
-301 -14 -54 -28 -80 -60 -115 -86 -93 -126 -235 -101 -353 39 -182 193 -325
365 -338 l63 -5 6 73 c14 162 84 307 212 434 140 141 278 202 475 212 387 19
710 -262 755 -659 l6 -58 693 0 693 0 7 70 c23 251 192 483 430 590 201 91
460 76 656 -37 121 -71 252 -222 305 -351 25 -62 55 -193 55 -242 0 -30 1 -31
38 -24 280 50 430 347 305 599 -14 28 -36 61 -49 75 -20 21 -27 49 -44 165
-38 265 -79 427 -156 618 -146 364 -385 616 -714 755 -201 84 -414 130 -710
152 -157 12 -588 11 -740 -1z"/>
<path d="M1099 2200 c-140 -17 -284 -96 -371 -205 -122 -150 -156 -377 -84
-554 145 -358 602 -466 889 -210 236 210 250 567 31 798 -120 128 -294 192
-465 171z m165 -266 c64 -22 147 -100 177 -166 30 -70 31 -173 2 -239 -78
-176 -289 -239 -449 -133 -94 63 -140 158 -132 273 14 198 213 329 402 265z"/>
<path d="M3965 2203 c-167 -17 -310 -96 -404 -220 -75 -101 -111 -209 -111
-338 0 -156 51 -279 164 -391 221 -221 563 -221 781 0 113 114 165 237 165
391 0 217 -123 414 -315 504 -84 40 -202 63 -280 54z m169 -283 c61 -29 117
-86 148 -148 32 -65 32 -176 0 -248 -86 -192 -345 -240 -490 -91 -66 69 -87
119 -87 212 0 60 6 92 21 125 29 63 104 135 167 159 71 28 172 24 241 -9z"/>
</g>
</svg>
