<?xml version="1.0" encoding="UTF-8" standalone="no" ?>
<!DOCTYPE svg PUBLIC "-//W3C//DTD SVG 1.1//EN" "http://www.w3.org/Graphics/SVG/1.1/DTD/svg11.dtd">
<svg xmlns="http://www.w3.org/2000/svg" xmlns:xlink="http://www.w3.org/1999/xlink" version="1.1" width="1080" height="1080" viewBox="0 0 1080 1080" xml:space="preserve">
<desc>Created with Fabric.js 5.2.4</desc>
<defs>
</defs>
<rect x="0" y="0" width="100%" height="100%" fill="transparent"></rect>
<g transform="matrix(1 0 0 1 540 540)" id="d82c04fb-fe99-452d-a737-317ee330565f"  >
</g>
<g transform="matrix(1 0 0 1 540 540)" id="7f02a044-7c4a-4874-812c-5e6160b4c376"  >
<rect style="stroke: none; stroke-width: 1; stroke-dasharray: none; stroke-linecap: butt; stroke-dashoffset: 0; stroke-linejoin: miter; stroke-miterlimit: 4; fill: rgb(255,255,255); fill-rule: nonzero; opacity: 1; visibility: hidden;" vector-effect="non-scaling-stroke"  x="-540" y="-540" rx="0" ry="0" width="1080" height="1080" />
</g>
<g transform="matrix(-1.3 0 0 1.25 555.6 514.42)"  >
<g style="" vector-effect="non-scaling-stroke"   >
		<g transform="matrix(0.13 0 0 -0.13 134 -277.85)"  >
<path style="stroke: none; stroke-width: 1; stroke-dasharray: none; stroke-linecap: butt; stroke-dashoffset: 0; stroke-linejoin: miter; stroke-miterlimit: 4; fill: rgb(0,0,0); fill-rule: nonzero; opacity: 1;" vector-effect="non-scaling-stroke"  transform=" translate(-3565.5, -4643.76)" d="M 3460 5009 C 3400 4985 3400 4987 3400 4613 L 3400 4270 L 3565 4270 L 3731 4270 L 3728 4615 L 3725 4960 L 3697 4987 C 3671 5013 3663 5015 3577 5017 C 3527 5019 3474 5015 3460 5009 z" stroke-linecap="round" />
</g>
		<g transform="matrix(0.13 0 0 -0.13 256.67 -277.85)"  >
<path style="stroke: none; stroke-width: 1; stroke-dasharray: none; stroke-linecap: butt; stroke-dashoffset: 0; stroke-linejoin: miter; stroke-miterlimit: 4; fill: rgb(0,0,0); fill-rule: nonzero; opacity: 1;" vector-effect="non-scaling-stroke"  transform=" translate(-4485.5, -4643.76)" d="M 4380 5009 C 4320 4985 4320 4987 4320 4613 L 4320 4270 L 4485 4270 L 4651 4270 L 4648 4615 L 4645 4960 L 4617 4987 C 4591 5013 4583 5015 4497 5017 C 4447 5019 4394 5015 4380 5009 z" stroke-linecap="round" />
</g>
		<g transform="matrix(0.13 0 0 -0.13 193.4 -145.99)"  >
<path style="stroke: none; stroke-width: 1; stroke-dasharray: none; stroke-linecap: butt; stroke-dashoffset: 0; stroke-linejoin: miter; stroke-miterlimit: 4; fill: rgb(0,0,0); fill-rule: nonzero; opacity: 1;" vector-effect="non-scaling-stroke"  transform=" translate(-4011, -3654.8)" d="M 3040 4080 C 3040 3982 3117 3767 3193 3653 C 3329 3449 3539 3298 3770 3239 C 4273 3111 4800 3413 4944 3912 C 4957 3958 4971 4019 4975 4048 L 4982 4100 L 4011 4100 L 3040 4100 L 3040 4080 z" stroke-linecap="round" />
</g>
		<g transform="matrix(0.13 0 0 -0.13 194.6 -35.75)"  >
<path style="stroke: none; stroke-width: 1; stroke-dasharray: none; stroke-linecap: butt; stroke-dashoffset: 0; stroke-linejoin: miter; stroke-miterlimit: 4; fill: rgb(0,0,0); fill-rule: nonzero; opacity: 1;" vector-effect="non-scaling-stroke"  transform=" translate(-4020, -2828)" d="M 3810 2861 C 3810 2751 3814 2650 3820 2636 C 3833 2601 3863 2595 4020 2595 C 4129 2596 4162 2599 4193 2614 L 4230 2632 L 4230 2846 L 4230 3060 L 4168 3052 C 4085 3043 3951 3043 3873 3053 L 3810 3061 L 3810 2861 z" stroke-linecap="round" />
</g>
		<g transform="matrix(0.13 0 0 -0.13 0 94.4)"  >
<path style="stroke: none; stroke-width: 1; stroke-dasharray: none; stroke-linecap: butt; stroke-dashoffset: 0; stroke-linejoin: miter; stroke-miterlimit: 4; fill: rgb(0,0,0); fill-rule: nonzero; opacity: 1;" vector-effect="non-scaling-stroke"  transform=" translate(-2560.47, -1851.89)" d="M 1855 3039 C 1380 3022 1058 2938 785 2760 C 685 2694 522 2531 452 2425 C 298 2195 193 1887 142 1519 C 124 1390 121 1381 81 1323 C 32 1250 12 1199 4 1117 C -17 901 141 703 362 667 C 388 663 390 665 390 696 C 390 742 415 856 440 922 C 508 1105 693 1283 879 1345 C 1237 1464 1617 1300 1774 958 C 1809 883 1840 759 1840 695 L 1840 660 L 2533 660 L 3227 660 L 3239 744 C 3263 917 3327 1049 3445 1166 C 3717 1437 4116 1457 4423 1215 C 4557 1109 4662 908 4677 729 L 4683 660 L 4714 660 C 4847 661 4996 755 5064 879 C 5120 982 5132 1078 5105 1185 C 5087 1253 5061 1298 5007 1357 C 4976 1390 4964 1416 4945 1490 C 4914 1603 4862 1716 4824 1752 C 4807 1768 4753 1794 4690 1815 C 4566 1858 4255 1987 4010 2098 L 3835 2176 L 3806 2231 C 3739 2357 3687 2440 3626 2516 C 3361 2847 2939 3017 2340 3036 C 2255 3038 2156 3042 2120 3043 C 2084 3045 1965 3043 1855 3039 z" stroke-linecap="round" />
</g>
		<g transform="matrix(0.13 0 0 -0.13 -192.7 253.42)"  >
<path style="stroke: none; stroke-width: 1; stroke-dasharray: none; stroke-linecap: butt; stroke-dashoffset: 0; stroke-linejoin: miter; stroke-miterlimit: 4; fill: rgb(0,0,0); fill-rule: nonzero; opacity: 1;" vector-effect="non-scaling-stroke"  transform=" translate(-1115.22, -659.2)" d="M 1045 1214 C 835 1182 665 1044 590 845 C 559 763 552 618 574 530 C 645 249 912 67 1193 108 C 1412 140 1600 306 1655 515 C 1674 590 1674 728 1655 800 C 1606 985 1455 1140 1272 1194 C 1215 1210 1094 1221 1045 1214 z M 1240 937 C 1294 913 1353 858 1384 800 C 1492 602 1343 359 1115 359 C 861 359 721 647 878 847 C 963 954 1113 991 1240 937 z" stroke-linecap="round" />
</g>
		<g transform="matrix(0.13 0 0 -0.13 186.16 253.15)"  >
<path style="stroke: none; stroke-width: 1; stroke-dasharray: none; stroke-linecap: butt; stroke-dashoffset: 0; stroke-linejoin: miter; stroke-miterlimit: 4; fill: rgb(0,0,0); fill-rule: nonzero; opacity: 1;" vector-effect="non-scaling-stroke"  transform=" translate(-3956.67, -661.25)" d="M 3843 1205 C 3538 1139 3344 833 3415 531 C 3497 183 3885 3 4210 162 C 4296 204 4406 313 4450 399 C 4499 496 4513 554 4513 655 C 4513 814 4460 942 4351 1050 C 4257 1144 4168 1189 4040 1210 C 3958 1223 3920 1222 3843 1205 z M 4066 943 C 4135 920 4221 833 4244 762 C 4281 651 4254 532 4172 447 C 4048 317 3828 331 3717 476 C 3672 536 3656 585 3656 670 C 3657 781 3718 878 3822 929 C 3872 954 3896 960 3950 960 C 3986 960 4039 952 4066 943 z" stroke-linecap="round" />
</g>
</g>
</g>
</svg>