<?xml version="1.0" standalone="no"?>
<!DOCTYPE svg PUBLIC "-//W3C//DTD SVG 20010904//EN"
 "http://www.w3.org/TR/2001/REC-SVG-20010904/DTD/svg10.dtd">
<svg version="1.0" xmlns="http://www.w3.org/2000/svg"
 width="512.000000pt" height="512.000000pt" viewBox="0 0 512.000000 512.000000"
 preserveAspectRatio="xMidYMid meet">

<g transform="translate(0.000000,512.000000) scale(0.100000,-0.100000)"
fill="#000000" stroke="none">
<path d="M4110 4140 l0 -250 235 0 235 0 0 250 0 250 -235 0 -235 0 0 -250z"/>
<path d="M3070 3870 l0 -380 340 0 340 0 0 380 0 380 -340 0 -340 0 0 -380z"/>
<path d="M1885 3986 c-17 -7 -38 -24 -46 -37 -9 -13 -108 -261 -220 -551
l-204 -527 -525 -3 c-511 -3 -526 -4 -570 -24 -49 -23 -85 -59 -118 -116 -44
-78 -46 -97 -52 -518 l-5 -405 -73 -3 -72 -3 0 -125 0 -124 197 2 197 3 17 67
c47 188 179 368 343 467 288 174 663 142 911 -77 112 -99 205 -249 241 -391
l18 -71 621 0 621 0 17 69 c73 282 306 507 588 566 404 85 805 -164 909 -564
l17 -66 212 -3 211 -2 0 660 0 660 -155 0 -155 0 0 480 0 480 -465 0 -465 0 0
-480 0 -480 -40 0 -40 0 0 250 0 250 -395 0 -395 0 0 -250 0 -250 -35 0 -34 0
-3 523 -3 522 -23 32 c-14 20 -37 36 -60 43 -59 16 -929 13 -967 -4z m815
-636 l0 -410 -500 0 c-275 0 -500 4 -500 8 0 6 248 651 301 785 l11 27 344 0
344 0 0 -410z"/>
<path d="M1065 2084 c-268 -42 -502 -259 -560 -519 -24 -105 -17 -274 14 -365
49 -143 144 -267 266 -349 172 -115 366 -145 567 -90 184 51 337 181 422 359
101 211 84 467 -44 662 -87 132 -228 237 -380 282 -55 17 -228 29 -285 20z
m255 -325 c240 -114 299 -424 116 -612 -218 -224 -592 -105 -646 205 -31 179
68 347 248 419 71 29 208 23 282 -12z"/>
<path d="M3815 2076 c-254 -58 -453 -248 -516 -493 -90 -353 106 -706 456
-820 110 -35 263 -37 380 -4 292 82 495 349 495 651 0 109 -23 202 -76 310
-81 163 -227 285 -408 342 -81 25 -251 32 -331 14z m297 -318 c113 -52 201
-171 217 -293 44 -322 -308 -547 -582 -373 -194 123 -232 401 -79 570 46 51
83 76 151 105 79 33 210 29 293 -9z"/>
</g>
</svg>
