<?xml version="1.0" standalone="no"?>
<!DOCTYPE svg PUBLIC "-//W3C//DTD SVG 20010904//EN"
 "http://www.w3.org/TR/2001/REC-SVG-20010904/DTD/svg10.dtd">
<svg version="1.0" xmlns="http://www.w3.org/2000/svg"
 width="512.000000pt" height="512.000000pt" viewBox="0 0 512.000000 512.000000"
 preserveAspectRatio="xMidYMid meet">

<g transform="translate(0.000000,512.000000) scale(0.100000,-0.100000)"
fill="#000000" stroke="none">
<path d="M1224 3872 c-127 -58 -211 -117 -315 -221 -78 -78 -169 -193 -169
-214 0 -3 37 20 82 50 84 56 209 122 309 163 50 20 60 29 91 84 83 144 99 176
91 176 -4 -1 -45 -18 -89 -38z"/>
<path d="M1625 3713 c-82 -11 -262 -60 -363 -99 -127 -49 -315 -143 -412 -206
-152 -98 -340 -328 -356 -436 -19 -125 104 -285 384 -502 39 -30 70 -58 69
-62 -1 -4 -66 -91 -145 -192 -160 -208 -179 -241 -162 -290 18 -54 54 -81 109
-81 28 0 56 6 66 15 10 8 87 104 172 213 106 136 158 195 166 189 92 -70 227
-179 284 -230 90 -80 101 -108 85 -229 -9 -68 -41 -178 -77 -265 -7 -17 33
-18 755 -18 543 0 774 3 801 11 58 18 101 60 205 200 53 70 105 131 117 135
95 30 421 -33 792 -153 230 -75 340 -68 447 26 207 182 110 523 -163 571 -29
5 -169 16 -309 25 -332 20 -642 43 -703 51 -40 6 -81 28 -225 124 -268 177
-637 430 -640 439 -3 8 73 41 168 71 85 28 247 37 310 17 25 -7 87 -41 138
-75 170 -112 172 -112 626 116 377 189 544 279 685 368 86 54 151 108 151 123
0 25 -388 14 -534 -14 -155 -31 -172 -39 -286 -148 -192 -183 -316 -271 -396
-283 -71 -10 -267 33 -549 122 -191 60 -195 62 -195 94 0 25 8 31 108 75 59
26 109 49 111 51 11 9 -65 58 -139 88 -213 89 -498 135 -836 136 -60 0 -85 4
-94 15 -12 15 -88 18 -165 8z m739 -969 c34 -35 34 -75 -1 -113 -67 -71 -256
-230 -267 -224 -30 18 -126 84 -126 88 0 6 261 239 290 258 35 25 73 21 104
-9z m245 -157 c20 -17 32 -55 25 -83 -6 -23 -262 -264 -280 -264 -12 0 -134
82 -134 90 0 13 278 254 307 267 29 12 58 9 82 -10z m245 -168 c32 -25 36 -84
7 -115 -23 -26 -252 -229 -257 -229 -2 0 -36 20 -75 45 l-71 45 29 25 c17 14
87 76 158 138 138 121 159 131 209 91z"/>
<path d="M2873 3382 c-34 -15 -65 -31 -68 -34 -3 -3 25 -15 62 -26 266 -81
463 -126 509 -118 34 7 141 78 214 143 l44 40 -234 6 c-129 4 -287 9 -350 12
-110 5 -118 4 -177 -23z"/>
<path d="M2815 2964 c-104 -22 -125 -28 -125 -33 1 -3 83 -61 183 -128 l181
-123 38 37 c30 29 35 40 26 49 -32 28 -294 200 -303 198z"/>
<path d="M4235 2754 c-201 -41 -364 -131 -473 -262 l-42 -50 107 -8 c204 -15
302 -11 368 15 146 55 335 19 466 -90 177 -148 222 -416 104 -618 -157 -267
-518 -321 -748 -113 -50 45 -60 50 -192 84 -188 49 -215 54 -215 36 0 -26 88
-187 132 -240 158 -194 360 -291 603 -291 137 0 221 20 340 78 202 98 352 282
412 505 24 89 24 290 -1 379 -95 347 -406 585 -758 580 -46 -1 -92 -3 -103 -5z"/>
<path d="M3150 2700 c-22 -22 -40 -44 -40 -49 0 -10 92 -71 106 -71 19 1 64
74 64 105 0 40 -16 55 -57 55 -25 0 -42 -9 -73 -40z"/>
<path d="M3308 2610 c-26 -27 -48 -54 -48 -59 0 -5 23 -24 51 -41 l50 -33 30
29 c58 55 73 108 41 137 -34 31 -71 21 -124 -33z"/>
<path d="M490 2626 c-195 -72 -360 -229 -434 -412 -186 -457 117 -952 615
-1009 112 -12 283 22 400 81 109 54 238 182 298 293 36 69 71 199 73 275 1 50
-2 60 -28 87 -52 55 -228 194 -219 174 22 -52 36 -154 31 -215 -11 -126 -58
-224 -151 -315 -124 -123 -289 -170 -454 -129 -225 55 -381 252 -381 479 0
269 225 495 494 495 l61 0 -40 32 c-22 18 -74 65 -116 105 -79 76 -90 80 -149
59z"/>
<path d="M3530 2573 c-17 -6 -110 -94 -110 -104 0 -3 37 -9 82 -12 92 -7 107
1 108 60 0 49 -33 73 -80 56z"/>
<path d="M679 2260 c-96 -16 -193 -88 -238 -175 -83 -161 -15 -362 149 -446
67 -34 186 -38 263 -9 70 26 143 94 177 165 29 59 39 173 20 229 l-12 36 -88
-114 c-49 -62 -103 -125 -120 -139 -100 -85 -260 -6 -260 128 0 51 18 84 116
210 72 93 82 111 67 117 -21 8 -15 8 -74 -2z"/>
</g>
</svg>
