<?xml version="1.0" standalone="no"?>
<!DOCTYPE svg PUBLIC "-//W3C//DTD SVG 20010904//EN"
 "http://www.w3.org/TR/2001/REC-SVG-20010904/DTD/svg10.dtd">
<svg version="1.0" xmlns="http://www.w3.org/2000/svg"
 width="512.000000pt" height="512.000000pt" viewBox="0 0 512.000000 512.000000"
 preserveAspectRatio="xMidYMid meet">

<g transform="translate(0.000000,512.000000) scale(0.100000,-0.100000)"
fill="#000000" stroke="none">
<path d="M1913 3765 c-167 -45 -423 -244 -703 -547 -98 -106 -302 -342 -326
-376 -1 -2 -60 -17 -130 -33 -259 -61 -522 -164 -605 -237 -47 -41 -94 -132
-120 -229 -17 -63 -21 -111 -22 -253 -1 -96 2 -205 6 -242 l9 -68 214 0 214 0
0 39 c0 60 36 163 80 229 169 252 506 297 737 98 86 -75 163 -230 163 -330 l0
-36 1020 0 1020 0 0 34 c0 45 34 152 67 211 33 60 115 143 177 179 68 39 169
66 252 66 242 0 455 -190 483 -430 l6 -55 333 -3 332 -2 0 603 c0 565 -1 611
-21 718 -50 281 -128 513 -206 616 -52 68 59 63 -1510 62 -1186 0 -1427 -3
-1470 -14z m607 -480 l0 -275 -606 0 -606 0 58 68 c240 276 417 433 528 468
29 9 124 13 334 13 l292 1 0 -275z m1200 0 l0 -275 -475 0 -475 0 0 275 0 275
475 0 475 0 0 -275z m1061 15 c32 -140 58 -263 59 -272 0 -17 -27 -18 -430
-18 l-430 0 0 275 0 275 372 -2 371 -3 58 -255z m199 -765 l0 -455 -40 0 -40
0 0 448 c0 247 3 452 7 455 3 4 21 7 40 7 l33 0 0 -455z m-4570 -95 l0 -70
-115 0 -115 0 0 70 0 70 115 0 115 0 0 -70z"/>
<path d="M846 2210 c-221 -39 -387 -274 -349 -495 60 -350 474 -494 728 -254
96 91 138 188 138 320 -1 154 -71 281 -201 366 -88 57 -211 81 -316 63z m181
-266 c15 -11 41 -37 57 -58 28 -34 31 -45 31 -105 0 -55 -5 -74 -24 -103 -38
-54 -84 -81 -150 -86 -118 -9 -201 71 -201 191 0 70 39 134 101 166 55 28 145
25 186 -5z"/>
<path d="M3866 2210 c-124 -22 -255 -123 -308 -237 -128 -273 30 -576 326
-625 200 -33 405 89 475 283 68 188 -7 407 -177 516 -89 57 -211 81 -316 63z
m187 -273 c64 -48 82 -84 82 -157 0 -52 -5 -72 -25 -101 -37 -55 -83 -82 -149
-87 -117 -8 -201 71 -201 188 0 116 83 193 202 187 43 -2 64 -10 91 -30z"/>
<path d="M1464 1726 c-3 -7 -4 -40 -2 -72 l3 -59 1015 0 1015 0 0 70 0 70
-1013 3 c-849 2 -1013 0 -1018 -12z"/>
</g>
</svg>
