<?xml version="1.0" encoding="UTF-8"?>
<!DOCTYPE svg PUBLIC "-//W3C//DTD SVG 1.1//EN" "http://www.w3.org/Graphics/SVG/1.1/DTD/svg11.dtd">
<svg xmlns="http://www.w3.org/2000/svg" version="1.1" width="512px" height="512px" style="shape-rendering:geometricPrecision; text-rendering:geometricPrecision; image-rendering:optimizeQuality; fill-rule:evenodd; clip-rule:evenodd" xmlns:xlink="http://www.w3.org/1999/xlink">
<g><path style="opacity:0.995" fill="#17A649" d="M 246.5,11.5 C 343.849,11.7376 417.683,53.0709 468,135.5C 503.604,202.62 508.604,271.953 483,343.5C 446.169,429.983 381.336,481.149 288.5,497C 202.671,506.286 130.504,479.453 72,416.5C 11.2808,341.863 -3.38585,258.863 28,167.5C 58.101,94.7316 110.601,46.2316 185.5,22C 205.569,16.1133 225.902,12.6133 246.5,11.5 Z M 371.5,140.5 C 375.44,140.758 379.107,141.924 382.5,144C 390.333,151.833 398.167,159.667 406,167.5C 409.543,173.706 409.209,179.706 405,185.5C 345.139,245.694 284.973,305.528 224.5,365C 213.532,372.232 202.532,372.232 191.5,365C 162.667,336.167 133.833,307.333 105,278.5C 101.667,273.167 101.667,267.833 105,262.5C 113.167,254.333 121.333,246.167 129.5,238C 134.833,234.667 140.167,234.667 145.5,238C 166.333,258.833 187.167,279.667 208,300.5C 260.167,248.333 312.333,196.167 364.5,144C 366.925,142.787 369.259,141.621 371.5,140.5 Z"/></g>
</svg>
