<?xml version="1.0" encoding="UTF-8"?>
<!DOCTYPE svg PUBLIC "-//W3C//DTD SVG 1.1//EN" "http://www.w3.org/Graphics/SVG/1.1/DTD/svg11.dtd">
<svg xmlns="http://www.w3.org/2000/svg" version="1.1" width="512px" height="512px" style="shape-rendering:geometricPrecision; text-rendering:geometricPrecision; image-rendering:optimizeQuality; fill-rule:evenodd; clip-rule:evenodd" xmlns:xlink="http://www.w3.org/1999/xlink">
<g><path style="opacity:0.997" fill="#4555ee" d="M 244.5,1.5 C 295.922,-0.544407 335.088,20.1223 362,63.5C 379.882,98.1137 382.216,133.78 369,170.5C 338.989,231.255 290.489,255.422 223.5,243C 190.124,233.29 164.624,213.457 147,183.5C 132.106,154.57 128.439,124.236 136,92.5C 149.301,49.1985 177.468,20.3652 220.5,6C 228.58,4.15624 236.58,2.65624 244.5,1.5 Z"/></g>
<g><path style="opacity:0.997" fill="#4555ee" d="M 146.5,246.5 C 153.241,246.171 159.908,246.671 166.5,248C 179.667,255.749 192.667,263.749 205.5,272C 230.311,284.83 256.311,288.164 283.5,282C 291.263,279.619 298.93,276.952 306.5,274C 319.337,267.085 331.67,259.418 343.5,251C 351.684,246.777 360.351,245.444 369.5,247C 398.593,250.122 421.426,263.622 438,287.5C 454.03,313.588 463.697,341.921 467,372.5C 469.621,394.167 470.288,415.834 469,437.5C 463.619,471.217 444.786,493.717 412.5,505C 405.286,506.98 397.953,508.313 390.5,509C 302.167,509.667 213.833,509.667 125.5,509C 81.3626,504.193 55.1959,480.026 47,436.5C 43.7686,393.452 49.7686,351.786 65,311.5C 80.0857,274.408 107.252,252.742 146.5,246.5 Z"/></g>
</svg>
